<?xml version="1.0" standalone="no"?>
<!DOCTYPE svg PUBLIC "-//W3C//DTD SVG 20010904//EN"
 "http://www.w3.org/TR/2001/REC-SVG-20010904/DTD/svg10.dtd">
<svg version="1.0" xmlns="http://www.w3.org/2000/svg"
 width="275.000000pt" height="183.000000pt" viewBox="0 0 275.000000 183.000000"
 preserveAspectRatio="xMidYMid meet">
<metadata>
Created by potrace 1.15, written by Peter Selinger 2001-2017
</metadata>
<g transform="translate(0.000000,183.000000) scale(0.100000,-0.100000)"
fill="#000000" stroke="none">
<path d="M1830 1725 c0 -17 9 -18 112 -12 103 5 109 5 82 -9 -22 -12 -46 -14
-106 -9 -58 5 -78 4 -78 -5 0 -7 -7 -10 -15 -6 -8 3 -15 1 -15 -4 0 -6 6 -10
13 -11 31 -3 65 -1 102 6 39 8 39 7 24 -11 -9 -10 -17 -26 -17 -34 -1 -8 -5
-40 -10 -72 l-8 -56 24 9 c14 6 31 17 38 27 11 15 14 15 33 -8 12 -15 21 -42
22 -65 1 -22 3 -44 4 -50 2 -5 3 -14 4 -18 0 -4 11 -3 23 4 18 10 20 9 14 -6
-6 -16 -4 -16 11 -4 10 8 25 23 35 34 22 27 35 11 21 -25 -9 -24 -8 -33 4 -45
8 -8 20 -15 26 -15 7 0 6 -4 -3 -10 -11 -7 -11 -10 -2 -10 7 0 11 -4 7 -9 -11
-19 17 -22 37 -4 11 10 23 17 27 17 14 -3 31 9 25 18 -3 5 -12 4 -21 -3 -13
-11 -14 -8 -11 21 3 32 0 35 -61 71 -35 20 -71 36 -80 34 -9 -1 -22 6 -29 17
-11 15 -11 21 2 33 8 8 17 28 21 45 5 20 14 32 31 36 13 3 21 10 18 15 -3 5 4
18 17 28 l22 18 -31 22 c-18 12 -37 19 -43 15 -8 -4 -9 -3 -5 4 12 20 -43 34
-156 39 -99 5 -108 4 -108 -12z"/>
<path d="M570 1672 c-42 -26 -89 -57 -104 -69 l-29 -23 38 0 c43 0 205 47 205
60 0 4 -12 13 -27 18 l-28 10 26 1 c24 1 94 30 87 36 -2 1 -23 5 -48 8 -41 6
-51 2 -120 -41z"/>
<path d="M1020 1655 c0 -18 34 -84 41 -79 5 3 6 -3 2 -12 -4 -11 -2 -15 4 -11
6 4 10 0 9 -10 -1 -21 18 -27 35 -11 8 7 23 14 34 16 11 2 25 10 32 18 6 9 14
15 17 14 4 -1 12 1 19 3 9 4 9 6 0 6 -19 1 -15 29 5 34 16 4 16 5 0 6 -10 0
-18 6 -18 12 0 6 8 8 19 4 11 -3 22 -1 26 5 4 7 -32 10 -109 10 -64 0 -116 -2
-116 -5z"/>
<path d="M2250 1582 c19 -9 24 -45 10 -72 -9 -16 -18 -20 -38 -15 -21 4 -30 0
-40 -16 -7 -11 -12 -22 -10 -23 2 -1 17 -12 34 -24 l31 -21 20 21 21 20 11
-21 c7 -12 9 -26 6 -31 -3 -6 1 -7 9 -4 9 3 16 10 16 15 0 17 22 9 40 -13 10
-13 17 -26 16 -30 0 -4 9 -15 22 -23 35 -25 26 -32 -37 -27 -40 3 -61 0 -66
-8 -6 -10 -1 -12 18 -8 21 4 28 0 33 -15 4 -13 2 -23 -5 -25 -9 -3 -9 -7 0
-18 9 -11 8 -14 -4 -14 -8 0 -17 7 -21 15 -3 8 -11 15 -18 15 -9 0 -8 -3 2
-10 13 -8 13 -10 0 -10 -9 0 -7 -5 8 -16 16 -11 27 -13 35 -5 7 5 24 12 39 15
34 6 68 24 68 36 0 14 27 12 36 -2 4 -6 3 -8 -3 -5 -6 4 -10 -4 -10 -18 l0
-24 18 22 c18 22 18 22 9 -12 -10 -37 -6 -51 15 -51 7 0 15 -5 17 -12 3 -8 21
-4 59 14 83 41 82 40 63 76 -8 18 -21 32 -27 32 -17 0 -97 82 -97 99 0 8 -2
12 -5 9 -3 -3 -38 28 -77 68 -39 41 -75 74 -80 74 -5 0 -21 9 -37 21 -15 11
-43 22 -62 24 -19 3 -27 1 -19 -3z"/>
<path d="M1195 1490 c8 -41 73 -247 87 -273 7 -14 12 -15 31 -5 12 6 39 11 59
9 55 -4 81 14 74 50 -6 30 6 44 36 44 10 0 18 5 18 10 0 6 -9 10 -19 10 -11 0
-23 3 -27 8 -4 4 12 7 36 7 54 0 42 20 -16 27 -21 2 -44 9 -51 15 -18 14 -16
38 2 38 27 0 16 17 -15 24 -24 4 -30 11 -30 31 0 28 -14 31 -67 16 -22 -7 -33
-6 -37 2 -3 9 -7 8 -14 -2 -8 -11 -11 -9 -17 8 -4 15 -14 20 -31 19 -23 -2
-25 -5 -19 -38z"/>
<path d="M1642 1499 c-7 -10 -18 -19 -25 -19 -21 0 -38 -46 -28 -73 8 -20 6
-23 -12 -23 -14 1 -23 -6 -25 -19 -2 -11 -11 -27 -18 -36 -13 -15 -12 -17 7
-22 24 -6 59 8 59 23 0 5 -8 14 -17 19 -16 9 -14 10 7 8 17 -1 25 3 25 13 0
16 24 31 38 23 10 -6 9 -43 -1 -43 -5 0 -21 -28 -37 -62 -39 -88 -39 -88 -23
-88 15 0 37 34 42 62 1 10 13 28 27 42 47 47 52 56 35 62 -18 7 -22 34 -5 34
6 0 19 -5 30 -11 17 -9 18 -13 8 -25 -10 -13 -10 -17 1 -24 17 -10 8 -21 -90
-114 -127 -120 -182 -180 -185 -201 -2 -19 2 -21 34 -15 20 3 54 3 76 -1 22
-4 42 -3 45 1 3 5 21 10 40 12 32 3 38 9 75 78 47 88 74 130 85 130 4 0 18 -8
31 -19 l22 -18 -22 -32 c-21 -30 -24 -31 -41 -16 -19 17 -22 15 -54 -45 -45
-85 -59 -100 -96 -101 -29 0 -32 -2 -15 -9 12 -6 -58 -9 -183 -8 -111 0 -204
4 -207 8 -8 14 17 17 103 14 l84 -3 -42 30 c-23 17 -43 29 -44 27 -2 -2 -9
-12 -15 -23 -12 -20 -10 -8 4 28 6 13 -112 114 -127 109 -5 -1 -8 5 -8 14 0 8
-4 13 -9 10 -5 -3 -11 0 -14 7 -3 8 -41 43 -84 79 -68 56 -79 62 -75 42 2 -13
8 -21 13 -18 5 3 6 -1 4 -8 -3 -8 13 -64 35 -126 22 -62 40 -122 40 -132 0
-13 7 -20 20 -20 17 0 18 -3 9 -19 -8 -11 -20 -17 -33 -14 -20 3 -20 3 -1 -6
11 -5 31 -10 45 -10 19 -1 21 -4 12 -13 -7 -7 -12 -22 -12 -35 0 -12 -8 -27
-19 -32 -16 -9 -21 -6 -31 18 -10 25 -17 51 -19 74 -1 4 -8 7 -16 7 -8 0 -15
9 -15 20 0 19 -7 20 -96 20 -52 0 -93 4 -90 8 6 10 -40 62 -55 62 -6 0 -7 6
-3 13 6 9 3 8 -8 -1 -15 -12 -14 -16 15 -42 l31 -28 -57 -1 c-32 0 -56 3 -53
7 3 5 -4 13 -15 20 -11 7 -19 8 -19 2 0 -5 5 -10 10 -10 6 0 10 -4 10 -9 0 -8
-22 -6 -76 4 -12 3 -27 18 -34 34 -7 19 -17 28 -26 24 -11 -4 -10 -8 3 -21 15
-16 15 -17 -1 -20 -9 -2 -23 2 -31 8 -8 6 -18 9 -24 6 -5 -3 -12 1 -15 10 -4
9 -2 13 5 8 6 -3 3 5 -6 20 -25 38 -8 47 22 11 14 -16 23 -22 20 -13 -6 18 15
31 38 22 8 -4 15 -1 15 5 0 17 48 13 58 -5 5 -10 15 -14 21 -10 9 6 9 11 1 21
-7 8 -9 19 -5 25 5 7 -2 9 -20 4 -26 -6 -27 -6 -15 17 7 13 20 33 29 43 11 14
12 17 2 11 -11 -6 -13 -4 -8 9 6 14 3 17 -9 12 -14 -5 -15 -4 -4 9 7 8 9 15 5
15 -15 0 -194 -94 -190 -100 5 -7 -28 -11 -87 -9 -10 0 -17 6 -15 12 1 7 -4
11 -12 9 -7 -2 -23 5 -35 15 -19 17 -20 17 -7 0 12 -15 12 -17 -1 -12 -12 5
-17 -4 -22 -39 -4 -25 -7 -49 -7 -53 0 -4 23 -14 52 -21 29 -7 66 -22 81 -34
16 -11 32 -17 36 -14 3 4 0 11 -8 16 -13 9 -13 10 0 10 16 -1 52 -25 46 -31
-3 -2 5 -5 17 -5 12 -1 36 -5 52 -8 83 -18 189 -36 192 -32 3 2 39 -41 82 -97
42 -56 82 -101 89 -100 6 2 9 -4 6 -12 -5 -12 4 -15 44 -15 28 0 54 -4 57 -10
4 -6 -10 -10 -34 -10 -23 0 -41 -4 -41 -9 0 -5 6 -9 13 -8 45 1 55 -4 61 -35
9 -45 1 -46 -41 -7 -20 19 -33 27 -29 19 5 -9 2 -9 -7 2 -13 16 -15 16 -25 -8
-7 -14 -12 -32 -12 -40 0 -15 83 -72 141 -97 18 -8 43 -24 53 -36 18 -20 88
-31 85 -13 -1 4 0 18 1 32 2 19 4 20 7 7 3 -10 12 -17 21 -16 31 3 43 -1 37
-11 -4 -6 -11 -8 -16 -5 -5 4 -9 0 -9 -7 0 -10 -3 -9 -11 2 -8 11 -9 8 -5 -15
5 -22 4 -26 -4 -15 -8 13 -11 11 -16 -8 -4 -12 -11 -22 -16 -22 -5 0 -6 -5 -3
-10 3 -6 15 -10 26 -10 11 0 18 -4 14 -9 -3 -5 3 -12 12 -14 15 -4 15 -5 2 -6
-19 -1 -126 68 -254 163 -74 55 -95 67 -122 64 -18 -1 -32 2 -30 7 1 6 11 9
22 8 19 -2 19 -1 2 10 -9 7 -88 62 -175 122 l-157 110 0 53 c0 53 -1 54 -37
66 -46 16 -55 3 -27 -43 20 -34 19 -36 -14 -21 -29 14 27 -36 125 -111 85 -66
111 -93 52 -57 -115 72 -74 38 141 -116 28 -20 69 -49 92 -66 36 -26 46 -29
64 -19 15 8 24 8 32 0 8 -8 3 -11 -19 -11 l-29 0 25 -21 c69 -56 292 -198 304
-193 8 3 17 1 21 -5 4 -7 -1 -9 -12 -5 -12 4 -10 0 7 -14 13 -11 27 -19 31
-16 4 2 9 -3 13 -11 3 -8 11 -15 17 -15 7 0 20 -7 30 -16 17 -15 22 -13 81 22
106 65 203 135 200 145 -1 6 2 8 8 4 12 -8 122 70 112 79 -4 4 -2 6 5 4 11 -3
223 142 288 197 l30 26 -39 -16 c-46 -18 -55 -25 -35 -25 8 -1 -6 -10 -29 -21
-24 -11 -46 -18 -50 -15 -3 3 9 11 27 17 18 6 30 14 27 16 -7 7 39 43 54 43 6
0 9 4 6 9 -4 5 4 7 16 4 19 -4 21 -3 8 7 -13 10 -12 11 3 6 10 -3 21 -6 23 -6
3 0 2 -5 -1 -10 -6 -10 155 105 478 340 64 47 117 89 117 93 0 5 -22 -8 -50
-28 -27 -20 -50 -34 -50 -30 0 4 -6 2 -14 -4 -8 -7 -45 -17 -83 -22 -37 -5
-138 -23 -223 -39 -85 -16 -166 -30 -179 -32 -23 -3 -30 8 -87 141 -33 79 -68
149 -77 156 -9 6 -16 20 -16 31 0 10 -3 38 -7 61 -5 35 -9 41 -23 34 -9 -5
-41 -8 -71 -7 -41 1 -55 5 -55 16 0 8 -13 17 -31 20 -17 4 -35 9 -40 13 -6 3
-15 -3 -22 -14z m175 -516 c-42 -7 -43 -27 -3 -82 42 -57 40 -83 -5 -74 -16 3
-29 1 -29 -4 0 -6 -19 -13 -42 -17 -24 -4 -54 -9 -68 -12 -20 -4 -22 -3 -9 5
13 9 15 18 9 46 -4 20 -12 41 -18 48 -6 8 -5 23 4 44 14 32 15 33 104 46 14 3
39 4 55 4 l30 0 -28 -4z"/>
<path d="M886 1423 c-2 -5 -33 -23 -68 -42 l-65 -34 -2 -49 c-2 -49 13 -114
31 -133 5 -6 7 6 4 33 -5 33 -3 42 10 42 26 0 64 47 64 80 0 17 4 29 9 26 10
-7 21 17 21 45 0 10 5 19 10 19 6 0 10 5 10 10 0 12 -17 13 -24 3z"/>
<path d="M70 1196 c0 -15 31 -41 130 -111 44 -31 50 -34 31 -12 -39 43 -8 31
41 -15 25 -24 62 -59 83 -78 l39 -35 -32 44 c-18 25 -32 48 -32 52 0 4 12 12
28 17 26 9 26 9 -15 16 -24 4 -46 14 -50 21 -8 13 -52 37 -138 75 -27 12 -58
27 -67 32 -13 6 -18 5 -18 -6z"/>
</g>
</svg>
